Coordinates
version=1
nRows=17
nColumns=38
inDegrees=no

Units are S.I. units (second, meters, Newtons, ...)
If the header above contains a line with 'inDegrees', this indicates whether rotational values are in degrees (yes) or radians (no).

endheader
time	pelvis_tilt	pelvis_list	pelvis_rotation	pelvis_tx	pelvis_ty	pelvis_tz	hip_flexion_r	hip_adduction_r	hip_rotation_r	knee_angle_r	ankle_angle_r	subtalar_angle_r	mtp_angle_r	hip_flexion_l	hip_adduction_l	hip_rotation_l	knee_angle_l	ankle_angle_l	subtalar_angle_l	mtp_angle_l	lumbar_extension	lumbar_bending	lumbar_rotation	arm_flex_r	arm_add_r	arm_rot_r	elbow_flex_r	pro_sup_r	wrist_flex_r	wrist_dev_r	arm_flex_l	arm_add_l	arm_rot_l	elbow_flex_l	pro_sup_l	wrist_flex_l	wrist_dev_l
0.49	-2.8931	1.01387	1.44195	0.806956	1.12813	0.992164	0.822863	0.0730958	-0.0280631	0.218611	-0.19511	0	0	0.415248	-0.146784	0.0600615	0.842878	-0.419196	0	0	0.57108	0.140868	-0.157667	-0.180631	-0.229383	0.237993	0.224797	1.45668	0	0	-0.131574	-0.308905	0.390231	0.813472	1.37672	0	0
0.5	-2.88151	1.01877	1.43908	0.80667	1.11479	0.993799	0.802002	0.0751378	-0.0435642	0.214949	-0.184642	0	0	0.440013	-0.148651	0.0817937	0.89635	-0.426647	0	0	0.563431	0.141204	-0.157419	-0.174441	-0.228086	0.239012	0.23295	1.45858	0	0	-0.128021	-0.307085	0.408287	0.797713	1.35759	0	0
0.51	-2.87435	1.02304	1.44013	0.80649	1.10165	0.995661	0.781288	0.0758746	-0.0554088	0.208849	-0.175931	0	0	0.464929	-0.147154	0.100598	0.944701	-0.413386	0	0	0.557286	0.139071	-0.155206	-0.168939	-0.226585	0.237961	0.242173	1.46135	0	0	-0.123143	-0.30618	0.43132	0.780106	1.33652	0	0
0.52	-2.87216	1.02523	1.44391	0.806147	1.08862	0.997649	0.762855	0.0761995	-0.0630423	0.202275	-0.169501	0	0	0.490749	-0.143858	0.113524	0.987328	-0.38582	0	0	0.554816	0.134972	-0.150209	-0.164637	-0.224607	0.23531	0.252234	1.46563	0	0	-0.119267	-0.305379	0.454715	0.761506	1.31658	0	0
0.53	-2.87327	1.02468	1.44862	0.805593	1.07577	0.999721	0.748345	0.0762637	-0.0708215	0.198074	-0.164692	0	0	0.518437	-0.139706	0.122003	1.02478	-0.351514	0	0	0.556411	0.13016	-0.142513	-0.161695	-0.222585	0.231286	0.263512	1.47241	0	0	-0.115911	-0.304487	0.47918	0.742018	1.2987	0	0
0.54	-2.87438	1.02449	1.45239	0.80496	1.06294	1.00204	0.733311	0.0763677	-0.0787006	0.194599	-0.161395	0	0	0.544811	-0.135543	0.127656	1.05685	-0.31748	0	0	0.558146	0.125557	-0.134163	-0.158774	-0.22082	0.226299	0.275778	1.47979	0	0	-0.113233	-0.303051	0.502346	0.721852	1.28635	0	0
0.55	-2.87647	1.02616	1.45519	0.804173	1.04998	1.00466	0.715668	0.0767492	-0.0843632	0.190622	-0.159089	0	0	0.567769	-0.131837	0.128106	1.08242	-0.283985	0	0	0.557986	0.121005	-0.124099	-0.156146	-0.219046	0.218617	0.289901	1.48825	0	0	-0.110937	-0.302319	0.526604	0.70196	1.27696	0	0
0.56	-2.88017	1.02987	1.45796	0.80327	1.03689	1.00752	0.694782	0.0776651	-0.0860918	0.184417	-0.158105	0	0	0.587145	-0.128383	0.123756	1.10059	-0.25636	0	0	0.555604	0.115815	-0.113286	-0.152897	-0.217077	0.211144	0.304753	1.49689	0	0	-0.110515	-0.302058	0.547103	0.684197	1.26995	0	0
0.57	-2.88611	1.03428	1.46149	0.802346	1.02389	1.01049	0.672909	0.0784745	-0.0843093	0.176662	-0.158379	0	0	0.604698	-0.124676	0.116548	1.11144	-0.231767	0	0	0.552006	0.110111	-0.101352	-0.14985	-0.215186	0.201705	0.321814	1.50701	0	0	-0.1107	-0.302678	0.566961	0.668497	1.26279	0	0
0.58	-2.89292	1.03979	1.4655	0.801482	1.01102	1.01355	0.650276	0.078971	-0.0832248	0.169155	-0.159524	0	0	0.62016	-0.120771	0.109031	1.11557	-0.210676	0	0	0.546581	0.104125	-0.0894879	-0.146779	-0.213498	0.19152	0.340863	1.51969	0	0	-0.111123	-0.303862	0.585814	0.654297	1.25679	0	0
0.59	-2.90002	1.04621	1.4699	0.800682	0.998334	1.01661	0.627281	0.0791102	-0.0846488	0.162451	-0.161102	0	0	0.63406	-0.116948	0.101738	1.11371	-0.193828	0	0	0.539753	0.0978486	-0.0788414	-0.143086	-0.212237	0.183174	0.36123	1.53169	0	0	-0.112637	-0.305441	0.601478	0.642169	1.25433	0	0
0.6	-2.90849	1.05183	1.47547	0.799954	0.985864	1.01957	0.605686	0.0781978	-0.0881791	0.15615	-0.163694	0	0	0.648484	-0.113678	0.0917995	1.10616	-0.178587	0	0	0.533467	0.0912711	-0.0682621	-0.14059	-0.211234	0.171692	0.384755	1.54283	0	0	-0.114256	-0.307363	0.616967	0.631035	1.25399	0	0
0.61	-2.91817	1.05651	1.4815	0.799195	0.973283	1.02238	0.584208	0.0771409	-0.0903138	0.148112	-0.167254	0	0	0.662557	-0.111359	0.0794606	1.0928	-0.164882	0	0	0.528767	0.084572	-0.057503	-0.139888	-0.210344	0.160626	0.410213	1.556	0	0	-0.117231	-0.309481	0.63115	0.620952	1.25526	0	0
0.62	-2.92867	1.06137	1.48729	0.798394	0.960801	1.02506	0.56249	0.0760035	-0.0917191	0.139909	-0.171406	0	0	0.675269	-0.1102	0.0647973	1.07439	-0.152411	0	0	0.523447	0.0781228	-0.046465	-0.139242	-0.209521	0.149842	0.436497	1.57028	0	0	-0.120806	-0.311737	0.643499	0.61222	1.25741	0	0
0.63	-2.93865	1.06634	1.49281	0.797693	0.948385	1.02758	0.540495	0.0746901	-0.0952417	0.131271	-0.176103	0	0	0.686851	-0.109623	0.0497881	1.05139	-0.141479	0	0	0.517536	0.0719878	-0.0360642	-0.138876	-0.209789	0.141979	0.464622	1.5708	0	0	-0.124704	-0.313979	0.654387	0.604684	1.26021	0	0
0.64	-2.94787	1.07113	1.49751	0.797078	0.936045	1.02987	0.518509	0.0735804	-0.099838	0.121834	-0.181434	0	0	0.697447	-0.109863	0.0339242	1.02371	-0.132094	0	0	0.511701	0.0666021	-0.0267187	-0.138413	-0.211303	0.137421	0.493622	1.5708	0	0	-0.129404	-0.315735	0.66305	0.597626	1.26272	0	0
0.65	-2.95709	1.07542	1.50124	0.79645	0.923768	1.03192	0.497544	0.0726213	-0.105426	0.113384	-0.187303	0	0	0.70703	-0.111255	0.0159302	0.990942	-0.124347	0	0	0.506395	0.0619742	-0.0173065	-0.137698	-0.2135	0.135478	0.522225	1.5708	0	0	-0.134917	-0.316921	0.669539	0.590647	1.26483	0	0
